<?xml version="1.0" encoding="iso-8859-1"?>
<!-- Uploaded to: SVG Repo, www.svgrepo.com, Generator: SVG Repo Mixer Tools -->
<svg height="800px" width="800px" version="1.1" id="Layer_1" xmlns="http://www.w3.org/2000/svg" xmlns:xlink="http://www.w3.org/1999/xlink"
	 viewBox="0 0 392.42 392.42" xml:space="preserve">
<path style="fill:#FFFFFF;" d="M196.264,21.657c-23.596,0-51.782,73.309-51.782,102.206v181.85h103.564v-181.85
	C248.046,95.03,219.86,21.657,196.264,21.657z"/>
<g>
	<path style="fill:#F9DC5C;" d="M196.264,151.079c-12.541,0-23.467-6.4-29.931-16.097v148.881h59.863V134.982
		C219.731,144.679,208.806,151.079,196.264,151.079z"/>
	<polygon style="fill:#F9DC5C;" points="217.985,327.564 174.543,327.564 196.264,361.309 	"/>
</g>
<g>
	<path style="fill:#00BBF9;" d="M269.832,256.129v74.731h43.572C312.434,314.828,305.581,281.859,269.832,256.129z"/>
	<path style="fill:#00BBF9;" d="M122.697,330.861v-74.731c-35.685,25.729-42.473,58.57-43.572,74.731H122.697z"/>
</g>
<path style="fill:#FFFFFF;" d="M196.264,100.848c-7.822,0-14.158,6.335-14.158,14.158s6.335,14.158,14.158,14.158
	c7.822,0,14.158-6.335,14.158-14.158S204.086,100.848,196.264,100.848z"/>
<g>
	<path style="fill:#00BBF9;" d="M196.264,273.455c-6.012,0-10.925-4.848-10.925-10.925v-62.19c0-6.012,4.848-10.925,10.925-10.925
		c6.012,0,10.925,4.848,10.925,10.925v62.19C207.189,268.606,202.276,273.455,196.264,273.455z"/>
	<path style="fill:#00BBF9;" d="M160.321,115.135c0,19.782,16.162,35.943,35.943,35.943s35.943-16.162,35.943-35.943
		s-16.162-35.943-35.943-35.943S160.321,95.354,160.321,115.135z M210.422,115.135c0,7.822-6.335,14.158-14.158,14.158
		c-7.822,0-14.158-6.335-14.158-14.158s6.335-14.158,14.158-14.158C204.086,100.978,210.422,107.313,210.422,115.135z"/>
</g>
<path style="fill:#FFC10D;" d="M196.264,79.192c7.887,0,15.192,2.651,21.204,6.982c-6.012-16.679-14.158-33.228-21.075-40.404
	c-6.982,7.176-15.063,23.725-21.075,40.404C181.137,81.842,188.377,79.192,196.264,79.192z"/>
<path style="fill:#1b1e7b;" d="M269.832,230.4V123.992C269.832,92.186,240.935,0,196.264,0s-73.568,92.186-73.568,123.992V230.4
	c-72.339,42.02-65.552,109.899-65.228,112.808c0.646,5.495,5.236,9.632,10.796,9.632h65.293c6.012,0,10.925-4.848,10.925-10.925
	v-14.287h4.073l38.465,59.798c4.655,6.659,14.093,6.659,18.295,0l38.465-59.798h4.073v14.287c0,6.012,4.848,10.925,10.925,10.925
	h65.293c5.56,0,10.214-4.202,10.796-9.632C335.383,340.299,342.171,272.485,269.832,230.4z M122.697,331.055H79.125
	c1.034-16.162,7.822-49.067,43.572-74.731V331.055z M196.264,361.503l-21.721-33.745h43.442L196.264,361.503z M248.046,305.907
	H144.482V123.992c0-28.897,28.186-102.206,51.782-102.206s51.782,73.309,51.782,102.206V305.907z M269.832,331.055v-74.731
	c35.685,25.729,42.473,58.57,43.572,74.731H269.832L269.832,331.055z"/>
</svg>
