<?xml version="1.0" standalone="no"?>
<!DOCTYPE svg PUBLIC "-//W3C//DTD SVG 20010904//EN"
 "http://www.w3.org/TR/2001/REC-SVG-20010904/DTD/svg10.dtd">
<svg version="1.0" xmlns="http://www.w3.org/2000/svg"
 width="663.000000pt" height="663.000000pt" viewBox="0 0 663.000000 663.000000"
 preserveAspectRatio="xMidYMid meet">

<g transform="translate(0.000000,663.000000) scale(0.100000,-0.100000)"
fill="#f1f1f1" fill-opacity="0.4" stroke="none">
<path d="M3660 5530 c-8 -5 -80 -35 -160 -66 -124 -50 -153 -57 -200 -55 -30
2 -134 3 -230 4 -194 0 -336 -21 -433 -66 -68 -31 -209 -164 -238 -223 -20
-42 -21 -54 -14 -138 4 -50 8 -120 9 -156 l1 -64 -42 -8 c-62 -10 -101 -34
-169 -104 -67 -68 -92 -79 -207 -90 -62 -5 -73 -10 -107 -43 -67 -64 -262
-147 -370 -156 -69 -6 -90 -13 -90 -29 0 -60 -204 -123 -470 -146 -165 -14
-293 -35 -355 -59 -27 -10 -77 -22 -110 -26 -110 -14 -220 -91 -265 -188 -20
-42 -20 -57 -17 -403 2 -303 5 -369 20 -423 23 -83 58 -147 119 -216 62 -69
124 -111 308 -209 164 -88 252 -144 348 -224 122 -100 164 -110 406 -93 194
14 323 4 444 -35 106 -33 160 -32 234 8 77 41 134 105 192 218 53 103 90 163
171 276 69 95 113 180 119 227 5 44 20 72 63 120 34 38 34 39 31 124 l-3 86
58 53 c117 105 178 116 496 90 284 -24 310 -32 355 -108 52 -89 56 -82 -122
-201 -162 -109 -231 -146 -268 -147 -38 0 -117 -61 -264 -202 -250 -242 -369
-333 -491 -377 -85 -31 -150 -80 -193 -145 -76 -115 -73 -139 25 -196 71 -42
172 -135 266 -247 39 -45 69 -69 115 -91 35 -16 94 -55 131 -85 88 -73 113
-77 225 -41 144 47 253 41 607 -37 183 -40 289 -80 348 -128 50 -42 125 -71
242 -95 140 -29 470 -68 542 -64 65 3 77 7 130 44 104 73 177 103 334 135 194
39 364 109 449 186 40 36 50 53 60 95 16 79 4 130 -51 213 -92 137 -406 443
-493 480 -17 7 -51 18 -74 25 -87 23 -172 142 -180 251 -4 51 -1 59 24 88 22
23 43 34 86 43 54 11 58 11 123 -21 79 -39 198 -152 243 -231 28 -49 30 -60
25 -115 -15 -167 134 -418 295 -497 65 -32 70 -33 197 -33 146 0 264 18 298
45 20 17 22 28 25 139 4 138 -14 216 -70 292 -37 51 -78 137 -78 163 0 30 -45
82 -108 125 -76 52 -124 104 -162 176 -38 71 -92 142 -192 252 -93 103 -118
152 -118 227 0 134 -92 226 -246 245 -79 9 -101 28 -155 131 -46 89 -161 225
-262 311 -67 57 -90 70 -189 112 -20 9 -57 32 -83 51 -50 38 -166 80 -255 90
-78 10 -109 24 -117 54 -9 37 26 209 54 268 14 29 53 84 87 123 85 96 107 172
67 237 -32 52 -81 68 -199 66 -76 -2 -110 2 -132 13 -17 9 -30 19 -30 23 0 13
-69 54 -102 61 -30 6 -33 10 -30 42 9 120 6 165 -15 205 -31 58 -60 74 -135
73 -35 0 -70 -4 -78 -9z"/>
</g>
</svg>
