<?xml version="1.0" standalone="no"?>
<!DOCTYPE svg PUBLIC "-//W3C//DTD SVG 20010904//EN"
 "http://www.w3.org/TR/2001/REC-SVG-20010904/DTD/svg10.dtd">
<svg version="1.0" xmlns="http://www.w3.org/2000/svg"
 width="512.000000pt" height="512.000000pt" viewBox="0 0 512.000000 512.000000"
 preserveAspectRatio="">

<g transform="translate(0.000000,512.000000) scale(0.100000,-0.100000)"
fill="#f1f1f1" stroke="none">
<path d="M799 4389 c-11 -23 -86 -182 -166 -353 -97 -209 -143 -319 -141 -336
4 -24 1685 -2956 1716 -2992 14 -17 43 -18 352 -18 309 0 338 1 352 18 39 46
1713 2970 1715 2997 2 22 -43 127 -160 375 l-162 345 -1742 3 -1743 2 -21 -41z
m3552 -298 c60 -129 109 -236 109 -238 0 -1 -581 -3 -1291 -3 -870 0 -1297 -3
-1310 -10 -11 -7 -19 -21 -19 -37 0 -16 133 -275 330 -644 182 -339 330 -620
330 -624 0 -13 -251 -435 -258 -435 -6 0 -437 739 -1275 2181 l-29 49 1652 -2
1651 -3 110 -234z m-2647 -1274 c461 -792 836 -1444 834 -1451 -2 -7 -68 -128
-148 -269 l-144 -257 -17 28 c-10 15 -382 660 -827 1434 l-811 1408 131 280
c72 155 134 277 138 273 4 -4 384 -655 844 -1446z m2816 914 c8 -16 -128 -259
-831 -1480 l-842 -1461 -259 0 -258 0 14 22 c8 13 314 556 681 1207 590 1047
666 1188 659 1210 l-9 26 -724 5 -724 5 -59 110 c-33 61 -91 170 -129 243
l-71 132 1271 0 c1240 0 1271 0 1281 -19z m-1650 -576 c0 -7 -289 -496 -300
-508 -6 -7 -280 488 -280 507 0 3 131 6 290 6 160 0 290 -2 290 -5z m677 -2
c-54 -104 -943 -1673 -946 -1673 -4 1 -72 116 -154 256 l-147 256 346 584 346
584 280 0 c153 0 277 -3 275 -7z"/>
</g>
</svg>
